<svg id="Capa_1" data-name="Capa 1" xmlns="http://www.w3.org/2000/svg" viewBox="0 0 320.11 349.49"><defs><style>.cls-1{fill:#a1cc8f;}</style></defs><rect class="cls-1" x="39.88" y="276.91" width="28.96" height="7" transform="translate(-132.92 64.74) rotate(-30)"/><path class="cls-1" d="M282.87,148.48A125.28,125.28,0,0,0,237,102.84a123.94,123.94,0,0,0-59-16.43V57.79h-7V86.43a123.83,123.83,0,0,0-58.72,16.82A124.75,124.75,0,0,0,66.89,273.16h0A125.36,125.36,0,0,0,112.3,318.8a124,124,0,0,0,62.22,16.89H175A124.7,124.7,0,0,0,282.87,148.48ZM57.33,211A117.65,117.65,0,0,1,168,93.56L167.54,207,69.65,263.49A117.68,117.68,0,0,1,57.33,211Z"/><path class="cls-1" d="M182.41,43.15a9.19,9.19,0,0,1-1.64,3.23,7,7,0,0,1-2.63,2,8.82,8.82,0,0,1-3.55.68,9.15,9.15,0,0,1-3.56-.67,7,7,0,0,1-2.66-2,9.05,9.05,0,0,1-1.66-3.23,15.45,15.45,0,0,1-.57-4.4V32.66a15.45,15.45,0,0,1,.57-4.4A9.18,9.18,0,0,1,168.37,25,6.85,6.85,0,0,1,171,23a8.67,8.67,0,0,1,3.54-.69,8.78,8.78,0,0,1,3.57.69,7,7,0,0,1,2.65,2,9.33,9.33,0,0,1,1.64,3.24,15.45,15.45,0,0,1,.57,4.4v6.09A15.45,15.45,0,0,1,182.41,43.15Zm-2.82-12.83a10.1,10.1,0,0,0-.51-2.28,4.66,4.66,0,0,0-1-1.65,3.89,3.89,0,0,0-1.49-1,5.83,5.83,0,0,0-2-.34,5.59,5.59,0,0,0-2.08.37,4.13,4.13,0,0,0-1.53,1.06,5.63,5.63,0,0,0-1.11,2.26,12.32,12.32,0,0,0-.37,3.21v6.16Zm.07,5.45V33.48l-10.11,7.73a9.11,9.11,0,0,0,.57,2.3,4.81,4.81,0,0,0,1.07,1.63,3.86,3.86,0,0,0,1.47.92,5.54,5.54,0,0,0,1.93.32,5.62,5.62,0,0,0,2-.34,4,4,0,0,0,1.48-1,5.29,5.29,0,0,0,1.21-2.28,13,13,0,0,0,.38-3.32Z"/><path class="cls-1" d="M34.32,290.68a6.18,6.18,0,0,1-1.34,2,7.55,7.55,0,0,1-.91.77,8.18,8.18,0,0,1-1.07.64,8.15,8.15,0,0,1,1.81,1.07,6.87,6.87,0,0,1,1.4,1.45,6.76,6.76,0,0,1,1.2,3.84,7.28,7.28,0,0,1-.65,3.14A6.89,6.89,0,0,1,33,305.89a7.89,7.89,0,0,1-2.63,1.44,10.47,10.47,0,0,1-3.21.49,10.66,10.66,0,0,1-3.26-.48,7.63,7.63,0,0,1-2.62-1.43,6.55,6.55,0,0,1-1.77-2.31,7.34,7.34,0,0,1-.64-3.16,7,7,0,0,1,.3-2.06,6.55,6.55,0,0,1,.88-1.8,7.45,7.45,0,0,1,1.37-1.44,7.58,7.58,0,0,1,1.81-1.07,7.67,7.67,0,0,1-1.56-1,6.34,6.34,0,0,1-1.93-3,6.16,6.16,0,0,1-.26-1.84,7.57,7.57,0,0,1,.57-3A6.3,6.3,0,0,1,21.64,283a6.77,6.77,0,0,1,2.4-1.39,10,10,0,0,1,6.12,0A7.23,7.23,0,0,1,32.6,283a6.39,6.39,0,0,1,1.63,2.25,7.4,7.4,0,0,1,.59,3A6.41,6.41,0,0,1,34.32,290.68Zm-2.58,7.69a4.43,4.43,0,0,0-2.61-2.57,5.44,5.44,0,0,0-2-.36,5.53,5.53,0,0,0-2,.36,4.55,4.55,0,0,0-1.55,1,4.47,4.47,0,0,0-1,1.57,5.6,5.6,0,0,0-.35,2,5.5,5.5,0,0,0,.35,2,4,4,0,0,0,1,1.49,4.35,4.35,0,0,0,1.56.93,6.38,6.38,0,0,0,2.07.32,6.12,6.12,0,0,0,2-.32,4.57,4.57,0,0,0,1.57-.93,4.27,4.27,0,0,0,1-1.49,5.3,5.3,0,0,0,.36-2A5.39,5.39,0,0,0,31.74,298.37Zm-.57-11.88a4.91,4.91,0,0,0-.91-1.43,4.32,4.32,0,0,0-1.39-.92,4.65,4.65,0,0,0-1.77-.33,4.7,4.7,0,0,0-1.75.32A3.89,3.89,0,0,0,24,285a4,4,0,0,0-.88,1.42,5.17,5.17,0,0,0-.31,1.85,5,5,0,0,0,.31,1.83,3.84,3.84,0,0,0,.9,1.38,3.76,3.76,0,0,0,1.37.9,4.71,4.71,0,0,0,1.76.32,4.78,4.78,0,0,0,1.75-.32,3.9,3.9,0,0,0,2.28-2.29,4.87,4.87,0,0,0,.33-1.82A4.82,4.82,0,0,0,31.17,286.49Z"/></svg>