<svg id="Capa_1" data-name="Capa 1" xmlns="http://www.w3.org/2000/svg" viewBox="0 0 268.3 268.3"><defs><style>.cls-1{fill:#a1cc8f;}</style></defs><path class="cls-1" d="M212.34,90a88.92,88.92,0,0,0-76.9-44.3h2.75V25.29H132V45.66h3.08A88.47,88.47,0,0,0,90.72,57.71,89.41,89.41,0,0,0,58.34,90.25a89.09,89.09,0,0,0,0,88.62A89.46,89.46,0,0,0,90.72,211.4a88.37,88.37,0,0,0,44.35,12H132v20.37h6.2V223.45h-2.75a88.35,88.35,0,0,0,44.18-11.76A88.93,88.93,0,0,0,212.34,90ZM128.89,217a82.7,82.7,0,0,1,0-164.88Z"/><path class="cls-1" d="M138.47,251.6h-.2a7.53,7.53,0,0,0-2.86.48,5.43,5.43,0,0,0-1.93,1.28,5.58,5.58,0,0,0-1.22,2,8.48,8.48,0,0,0-.49,2.38,5.27,5.27,0,0,1,.76-.73,5.4,5.4,0,0,1,.95-.59,5.23,5.23,0,0,1,1.07-.39,4.91,4.91,0,0,1,1.22-.15,5.11,5.11,0,0,1,2.39.53,4.9,4.9,0,0,1,1.66,1.39,6,6,0,0,1,1,2,8.35,8.35,0,0,1-.05,4.68,5.79,5.79,0,0,1-1.09,2,5.17,5.17,0,0,1-1.8,1.36,5.92,5.92,0,0,1-2.49.5,5.2,5.2,0,0,1-2.51-.58,5.63,5.63,0,0,1-1.82-1.49,6.53,6.53,0,0,1-1.24-2.35,9.24,9.24,0,0,1-.41-2.69v-1.11a19.48,19.48,0,0,1,.55-4.56,8.05,8.05,0,0,1,2.14-3.83,7,7,0,0,1,2.66-1.65,10.65,10.65,0,0,1,3.56-.55h.2ZM134.23,258a4.35,4.35,0,0,0-1,.54,3.93,3.93,0,0,0-.85.83,3.82,3.82,0,0,0-.58,1.07v.78a7.28,7.28,0,0,0,.29,2.18,4.93,4.93,0,0,0,.79,1.59,3.32,3.32,0,0,0,1.14,1,2.9,2.9,0,0,0,1.37.34,3.23,3.23,0,0,0,1.46-.32,3,3,0,0,0,1.08-.88,3.91,3.91,0,0,0,.66-1.34,6.13,6.13,0,0,0,.22-1.7,6.54,6.54,0,0,0-.2-1.59,4.41,4.41,0,0,0-.63-1.37,3.18,3.18,0,0,0-1.05-.95,3,3,0,0,0-1.49-.36A3.76,3.76,0,0,0,134.23,258Z"/><path class="cls-1" d="M140.71,14.86a6.35,6.35,0,0,1-1.17,2.29,4.86,4.86,0,0,1-1.87,1.43,6.87,6.87,0,0,1-5.07,0,4.88,4.88,0,0,1-1.9-1.44,6.21,6.21,0,0,1-1.18-2.29,11.12,11.12,0,0,1-.41-3.14V7.37a11.12,11.12,0,0,1,.41-3.14,6.46,6.46,0,0,1,1.18-2.31A5.09,5.09,0,0,1,132.58.49a6.8,6.8,0,0,1,5.07,0,5.21,5.21,0,0,1,1.89,1.43,6.61,6.61,0,0,1,1.17,2.31,11.12,11.12,0,0,1,.41,3.14v4.35A11.12,11.12,0,0,1,140.71,14.86Zm-2-9.15a7.15,7.15,0,0,0-.36-1.63,3.54,3.54,0,0,0-.71-1.18,2.7,2.7,0,0,0-1.06-.72,4.1,4.1,0,0,0-1.46-.24,3.85,3.85,0,0,0-1.49.26,3,3,0,0,0-1.09.75,4.09,4.09,0,0,0-.79,1.62,9.11,9.11,0,0,0-.26,2.28v4.4Zm.05,3.88V8l-7.21,5.51a6.25,6.25,0,0,0,.41,1.64,3.49,3.49,0,0,0,.76,1.17,3,3,0,0,0,1,.65,4.38,4.38,0,0,0,2.8,0,2.77,2.77,0,0,0,1.06-.7,3.84,3.84,0,0,0,.86-1.63,9.2,9.2,0,0,0,.27-2.37Z"/></svg>