<svg id="Capa_1" data-name="Capa 1" xmlns="http://www.w3.org/2000/svg" viewBox="0 0 268.3 268.3"><defs><style>.cls-1{fill:#a1cc8f;}</style></defs><path class="cls-1" d="M208.41,89.76a88.55,88.55,0,0,0-76.74-44.2h2.75V25.24h-6.18V45.56h3.09A88.7,88.7,0,0,0,87.06,210.92l-2.67-1.54L74.14,227.12l5.36,3.09,10.24-17.74-2.67-1.54a87.75,87.75,0,0,0,14,6.58,88.69,88.69,0,0,0,30.3,5.43h.34A88.7,88.7,0,0,0,208.41,89.76ZM125.15,132.6,84.93,202.25A82.51,82.51,0,0,1,125.15,52Z"/><path class="cls-1" d="M36.22,244.93a4.89,4.89,0,0,0-1.65-1.4,5.11,5.11,0,0,0-2.39-.52,5.36,5.36,0,0,0-1.22.14,5.89,5.89,0,0,0-1.07.39,6,6,0,0,0-.94.59,5.29,5.29,0,0,0-.76.73,8.41,8.41,0,0,1,.49-2.37,5.48,5.48,0,0,1,1.21-2,5.57,5.57,0,0,1,1.93-1.28,7.73,7.73,0,0,1,2.85-.47h.2v-2.11h-.2a10.63,10.63,0,0,0-3.55.55,7,7,0,0,0-2.65,1.65,8,8,0,0,0-2.14,3.82,19.33,19.33,0,0,0-.54,4.55v1.11a9.21,9.21,0,0,0,.4,2.68,6.69,6.69,0,0,0,1.24,2.35,5.69,5.69,0,0,0,1.81,1.48,5.2,5.2,0,0,0,2.51.58,5.87,5.87,0,0,0,2.48-.5,5,5,0,0,0,1.8-1.36,5.72,5.72,0,0,0,1.08-2,7.84,7.84,0,0,0,.37-2.44,8,8,0,0,0-.31-2.23A5.72,5.72,0,0,0,36.22,244.93Zm-1.28,6a4,4,0,0,1-.65,1.34,3.24,3.24,0,0,1-1.08.87,3.14,3.14,0,0,1-1.46.32,2.83,2.83,0,0,1-1.36-.34,3.33,3.33,0,0,1-1.15-1,4.92,4.92,0,0,1-.78-1.59,7.25,7.25,0,0,1-.3-2.17v-.79a4.29,4.29,0,0,1,.59-1.07,3.89,3.89,0,0,1,.85-.82,4.12,4.12,0,0,1,1-.54A3.76,3.76,0,0,1,31.8,245a2.92,2.92,0,0,1,1.48.36,3.12,3.12,0,0,1,1.06,1,4.17,4.17,0,0,1,.62,1.37,6,6,0,0,1,.2,1.58A6.13,6.13,0,0,1,34.94,250.92Z"/><path class="cls-1" d="M48.39,251.8a1.72,1.72,0,0,0-1.38.53,1.91,1.91,0,0,0-.46,1.29,1.67,1.67,0,0,0,1.84,1.76,1.84,1.84,0,0,0,1.39-.51,1.73,1.73,0,0,0,.48-1.25,1.84,1.84,0,0,0-.48-1.29A1.77,1.77,0,0,0,48.39,251.8Z"/><path class="cls-1" d="M48.39,240.67a1.72,1.72,0,0,0-1.38.53,1.91,1.91,0,0,0-.46,1.29,1.81,1.81,0,0,0,.46,1.25,1.77,1.77,0,0,0,1.38.51,1.84,1.84,0,0,0,1.39-.51,1.73,1.73,0,0,0,.48-1.25,1.84,1.84,0,0,0-.48-1.29A1.74,1.74,0,0,0,48.39,240.67Z"/><path class="cls-1" d="M67,236.64h-2.5l-8.29,12.82v1.39h8.44v4.29H67v-4.29h2.58v-1.92H67Zm-2.35,12.29H58.78l5.46-8.45.38-.71Z"/><path class="cls-1" d="M83.09,238.29a5.09,5.09,0,0,0-1.88-1.43,6.39,6.39,0,0,0-2.54-.49,6.29,6.29,0,0,0-2.52.49,5.09,5.09,0,0,0-1.88,1.43,6.63,6.63,0,0,0-1.18,2.31,11,11,0,0,0-.4,3.13v4.33a11.08,11.08,0,0,0,.4,3.14,6.44,6.44,0,0,0,1.18,2.29,4.86,4.86,0,0,0,1.9,1.43,6.84,6.84,0,0,0,5.06,0,4.8,4.8,0,0,0,1.86-1.42,6.43,6.43,0,0,0,1.17-2.29,11.07,11.07,0,0,0,.41-3.14v-4.33a11,11,0,0,0-.41-3.13A6.61,6.61,0,0,0,83.09,238.29Zm-8,8.66v-3.74a9.17,9.17,0,0,1,.26-2.28,4,4,0,0,1,.79-1.61,2.88,2.88,0,0,1,1.09-.75,3.8,3.8,0,0,1,1.48-.26,4.1,4.1,0,0,1,1.46.24,2.7,2.7,0,0,1,1.06.72,3.42,3.42,0,0,1,.7,1.18,6.24,6.24,0,0,1,.36,1.62l-7.2,5.52Zm7.26-1.74v3.35a9.09,9.09,0,0,1-.28,2.36,3.79,3.79,0,0,1-.86,1.63,2.77,2.77,0,0,1-1,.7,3.91,3.91,0,0,1-1.42.24,4,4,0,0,1-1.38-.22,2.89,2.89,0,0,1-1-.66,3.34,3.34,0,0,1-.76-1.16,6.17,6.17,0,0,1-.41-1.63l7.2-5.5Z"/><path class="cls-1" d="M127,17.12a4.85,4.85,0,0,0,1.89,1.43,6.56,6.56,0,0,0,2.53.47,6.31,6.31,0,0,0,2.53-.48,5,5,0,0,0,1.87-1.42,6.63,6.63,0,0,0,1.16-2.3,10.65,10.65,0,0,0,.41-3.13V7.36a10.77,10.77,0,0,0-.41-3.14,6.72,6.72,0,0,0-1.16-2.3A5.1,5.1,0,0,0,133.89.49,6.19,6.19,0,0,0,131.35,0a6.13,6.13,0,0,0-2.52.49A5,5,0,0,0,127,1.92a6.42,6.42,0,0,0-1.18,2.3,10.77,10.77,0,0,0-.41,3.14v4.33a10.65,10.65,0,0,0,.41,3.13A6.33,6.33,0,0,0,127,17.12Zm8-8.28v3.35a9.18,9.18,0,0,1-.27,2.36,3.9,3.9,0,0,1-.86,1.63,2.87,2.87,0,0,1-1.06.69,3.71,3.71,0,0,1-1.42.25,3.9,3.9,0,0,1-1.37-.23,2.59,2.59,0,0,1-1-.65,3.46,3.46,0,0,1-.77-1.16,6.26,6.26,0,0,1-.4-1.64L135,7.94Zm-7.26,1.73V6.84A9.05,9.05,0,0,1,128,4.56a4,4,0,0,1,.8-1.61,3,3,0,0,1,1.08-.76,4,4,0,0,1,1.48-.26,4.1,4.1,0,0,1,1.46.24,2.73,2.73,0,0,1,1.06.73,3.39,3.39,0,0,1,.71,1.17,7.18,7.18,0,0,1,.36,1.62l-7.21,5.53Z"/></svg>