<svg id="Capa_1" data-name="Capa 1" xmlns="http://www.w3.org/2000/svg" viewBox="0 0 268.3 268.3"><defs><style>.cls-1{fill:#a1cc8f;}.cls-2{fill:none;stroke:#a1cc8f;stroke-miterlimit:10;stroke-width:6.2px;}</style></defs><path class="cls-1" d="M211.06,90.19a89.39,89.39,0,0,0-32.71-32.54,88.45,88.45,0,0,0-44.2-11.76h-.34a88.9,88.9,0,0,0,0,177.8h.34a88.92,88.92,0,0,0,76.91-133.5ZM92.57,206.28a82.7,82.7,0,0,1,35-153.93v80L86.08,202.08S103.26,212.52,92.57,206.28Z"/><rect class="cls-1" x="130.71" y="25.52" width="6.2" height="20.37"/><path class="cls-1" d="M139.43,15.09a6.48,6.48,0,0,1-1.17,2.3,4.83,4.83,0,0,1-1.87,1.42,6.14,6.14,0,0,1-2.53.49,6.39,6.39,0,0,1-2.54-.48,5,5,0,0,1-1.9-1.43,6.33,6.33,0,0,1-1.18-2.3,11.07,11.07,0,0,1-.41-3.14V7.61a11.07,11.07,0,0,1,.41-3.14,6.38,6.38,0,0,1,1.18-2.31A5,5,0,0,1,131.3.72a6.8,6.8,0,0,1,5.07,0,5.13,5.13,0,0,1,1.89,1.44,6.53,6.53,0,0,1,1.17,2.31,11.07,11.07,0,0,1,.41,3.14V12A11.07,11.07,0,0,1,139.43,15.09Zm-2-9.15a7.18,7.18,0,0,0-.36-1.62,3.35,3.35,0,0,0-.71-1.18,2.62,2.62,0,0,0-1.06-.73,4.1,4.1,0,0,0-1.46-.24,4,4,0,0,0-1.48.26,2.82,2.82,0,0,0-1.09.76,4,4,0,0,0-.8,1.61,9.19,9.19,0,0,0-.26,2.29v4.39Zm.05,3.88V8.19l-7.21,5.52a6.58,6.58,0,0,0,.41,1.63,3.41,3.41,0,0,0,.77,1.17,2.73,2.73,0,0,0,1,.66,4.25,4.25,0,0,0,1.38.22,3.91,3.91,0,0,0,1.42-.24,3,3,0,0,0,1.06-.7,3.79,3.79,0,0,0,.86-1.63,9.26,9.26,0,0,0,.27-2.37Z"/><path class="cls-1" d="M71.62,247.47H68.49l6.61-14.29H66.55v-2.45H78.23v1.65Z"/><line class="cls-2" x1="87.81" y1="208.27" x2="78.99" y2="223.69"/></svg>