<svg id="Capa_1" data-name="Capa 1" xmlns="http://www.w3.org/2000/svg" viewBox="0 0 268.3 268.3"><defs><style>.cls-1{fill:#a1cc8f;}</style></defs><path class="cls-1" d="M144.49,17.15a5,5,0,0,0,1.9,1.43,6.87,6.87,0,0,0,5.07,0,4.93,4.93,0,0,0,1.87-1.42,6.48,6.48,0,0,0,1.17-2.3,11.07,11.07,0,0,0,.41-3.14V7.37a11.12,11.12,0,0,0-.41-3.14,6.61,6.61,0,0,0-1.17-2.31A5.1,5.1,0,0,0,151.44.49a6.8,6.8,0,0,0-5.07,0,5,5,0,0,0-1.88,1.43,6.63,6.63,0,0,0-1.18,2.31,11.12,11.12,0,0,0-.41,3.14v4.34a11.07,11.07,0,0,0,.41,3.14A6.49,6.49,0,0,0,144.49,17.15Zm8-8.3v3.36a9.12,9.12,0,0,1-.27,2.36,3.78,3.78,0,0,1-.86,1.63,2.77,2.77,0,0,1-1.06.7,3.76,3.76,0,0,1-1.43.25,3.94,3.94,0,0,1-1.37-.23,2.71,2.71,0,0,1-1-.65,3.51,3.51,0,0,1-.77-1.17,6.58,6.58,0,0,1-.41-1.63L152.54,8Zm-7.27,1.74V6.85a9.19,9.19,0,0,1,.26-2.29,4.13,4.13,0,0,1,.8-1.61,2.88,2.88,0,0,1,1.09-.75,3.76,3.76,0,0,1,1.48-.26,4.1,4.1,0,0,1,1.46.24,2.7,2.7,0,0,1,1.06.72,3.54,3.54,0,0,1,.71,1.18,7.18,7.18,0,0,1,.36,1.62l-7.22,5.54Z"/><polygon class="cls-1" points="18.72 227.01 28.75 227.01 21.1 243.49 23.57 243.49 31.24 226.28 31.24 224.95 18.72 224.95 18.72 227.01"/><path class="cls-1" d="M41.73,229a1.76,1.76,0,0,0-1.39.53,2,2,0,0,0-.45,1.29,1.79,1.79,0,0,0,.46,1.25,1.74,1.74,0,0,0,1.38.52,1.83,1.83,0,0,0,1.39-.51,1.77,1.77,0,0,0,.48-1.26,1.84,1.84,0,0,0-.48-1.29A1.74,1.74,0,0,0,41.73,229Z"/><path class="cls-1" d="M41.73,240.14a1.76,1.76,0,0,0-1.39.53,2,2,0,0,0-.45,1.29,1.79,1.79,0,0,0,.46,1.25,1.74,1.74,0,0,0,1.38.52,1.83,1.83,0,0,0,1.39-.51A1.77,1.77,0,0,0,43.6,242a1.84,1.84,0,0,0-.48-1.29A1.74,1.74,0,0,0,41.73,240.14Z"/><polygon class="cls-1" points="51.23 227.65 51.23 229.8 56.08 227.96 56.08 243.49 58.43 243.49 58.43 224.95 58.24 224.95 51.23 227.65"/><path class="cls-1" d="M73.48,236.17c.46-.51.91-1,1.33-1.54a13.14,13.14,0,0,0,1.11-1.56,8.82,8.82,0,0,0,.75-1.59,4.92,4.92,0,0,0,.28-1.64,5.31,5.31,0,0,0-.39-2.05,4.72,4.72,0,0,0-1.11-1.63,5.1,5.1,0,0,0-1.78-1.07,6.71,6.71,0,0,0-2.36-.39,6.57,6.57,0,0,0-2.54.46,5.35,5.35,0,0,0-1.87,1.23,5.18,5.18,0,0,0-1.19,1.82,6,6,0,0,0-.41,2.2h2.37a5.06,5.06,0,0,1,.23-1.56,3,3,0,0,1,1.8-1.95,4.38,4.38,0,0,1,1.61-.27,3.49,3.49,0,0,1,1.37.26,3.31,3.31,0,0,1,1,.71,3.12,3.12,0,0,1,.64,1.05,3.64,3.64,0,0,1,.22,1.29,3.93,3.93,0,0,1-.14,1.09,4.66,4.66,0,0,1-.47,1.11,9,9,0,0,1-.88,1.3c-.36.47-.81,1-1.36,1.61l-6.07,6.74v1.7H77.8v-1.93H68.5Z"/><path class="cls-1" d="M226.09,89.91a89.26,89.26,0,0,0-21.17-24.64,88.66,88.66,0,0,0-55.67-19.63H152V25.28h-6.19V45.64h3.08A88.84,88.84,0,0,0,93.1,203.37h0a89.53,89.53,0,0,0,11.43,7.93,88.46,88.46,0,0,0,44.35,12h.34A88.86,88.86,0,0,0,226.09,89.91Zm-83.41,42.38L92.34,194.46A82.64,82.64,0,0,1,142.68,52.09Z"/><rect class="cls-1" x="76.34" y="208.27" width="20.57" height="6.19" transform="translate(-132.15 145.68) rotate(-51)"/></svg>